<?xml version="1.0" encoding="UTF-8"?>
<svg version="1.1" xmlns="http://www.w3.org/2000/svg" width="998" height="1008">
<path d="M0 0 C1.30453125 -0.00773438 2.6090625 -0.01546875 3.953125 -0.0234375 C5.20351563 -0.02085938 6.45390625 -0.01828125 7.7421875 -0.015625 C9.43770752 -0.01224121 9.43770752 -0.01224121 11.16748047 -0.00878906 C14.11192222 0.24885567 15.56077549 0.91421335 18.125 2.25 C20.48916724 2.5075932 20.48916724 2.5075932 23.01953125 2.41015625 C24.4432605 2.39227051 24.4432605 2.39227051 25.89575195 2.37402344 C26.89952881 2.3537207 27.90330566 2.33341797 28.9375 2.3125 C31.01039147 2.29490413 33.08331334 2.28058778 35.15625 2.26953125 C36.17074219 2.2638916 37.18523437 2.25825195 38.23046875 2.25244141 C42.13904623 2.2491447 46.03341198 2.314466 49.9375 2.5 C51.67966797 2.56960937 51.67966797 2.56960937 53.45703125 2.640625 C54.77767578 2.94226563 54.77767578 2.94226563 56.125 3.25 C56.83466844 4.56095115 57.50280325 5.8953438 58.125 7.25 C61.43728161 8.1609492 64.56666857 8.36973117 67.98828125 8.34765625 C68.87451172 8.34443359 69.76074219 8.34121094 70.67382812 8.33789062 C71.58583984 8.32951172 72.49785156 8.32113281 73.4375 8.3125 C74.36884766 8.30798828 75.30019531 8.30347656 76.25976562 8.29882812 C78.54824373 8.28709234 80.83658808 8.27067363 83.125 8.25 C83.455 7.26 83.785 6.27 84.125 5.25 C91.46021906 3.96521621 96.69406782 4.78358326 103.75 7 C104.65234375 7.26554688 105.5546875 7.53109375 106.484375 7.8046875 C111.52766828 9.31914583 116.33229055 11.070302 121.125 13.25 C121.125 13.91 121.125 14.57 121.125 15.25 C121.91036133 15.3001123 122.69572266 15.35022461 123.50488281 15.40185547 C127.12869002 15.63666284 130.75181535 15.88078132 134.375 16.125 C135.60992188 16.20363281 136.84484375 16.28226563 138.1171875 16.36328125 C158.29821448 17.74408836 158.29821448 17.74408836 163.03833008 20.26928711 C165.95273195 21.6390253 168.63620156 21.73842874 171.83984375 21.99609375 C173.18033901 22.11262478 174.52083379 22.22916143 175.86132812 22.34570312 C177.94714743 22.51699056 180.03318994 22.68515867 182.11938477 22.85180664 C205.38150408 24.74319438 205.38150408 24.74319438 215.5625 30.1875 C216.55121094 30.71085937 217.53992188 31.23421875 218.55859375 31.7734375 C221.125 33.25 221.125 33.25 224.125 35.3125 C228.80191842 38.33300981 233.95968525 40.21062007 239.125 42.25 C238.795 42.91 238.465 43.57 238.125 44.25 C236.145 43.92 234.165 43.59 232.125 43.25 C232.4859375 43.94867188 232.846875 44.64734375 233.21875 45.3671875 C233.6828125 46.27726562 234.146875 47.18734375 234.625 48.125 C235.0890625 49.02992187 235.553125 49.93484375 236.03125 50.8671875 C237.125 53.25 237.125 53.25 237.125 55.25 C240.755 55.25 244.385 55.25 248.125 55.25 C247.795 56.24 247.465 57.23 247.125 58.25 C246.465 58.25 245.805 58.25 245.125 58.25 C245.125 58.91 245.125 59.57 245.125 60.25 C246.300625 60.3325 247.47625 60.415 248.6875 60.5 C254.46794337 61.11377132 259.92109815 62.7737983 265.4765625 64.41015625 C269.15652232 65.25725621 272.36354017 65.39987822 276.125 65.25 C271.55408351 59.2356362 266.75084216 55.82481207 260.125 52.25 C260.455 51.59 260.785 50.93 261.125 50.25 C262.58791304 50.8429915 264.04521513 51.44983823 265.5 52.0625 C266.71816406 52.56716797 266.71816406 52.56716797 267.9609375 53.08203125 C270.125 54.25 270.125 54.25 272.125 57.25 C273.61 56.755 273.61 56.755 275.125 56.25 C278.49438898 57.37312966 279.65674093 58.78174093 282.125 61.25 C283.115 61.58 284.105 61.91 285.125 62.25 C285.455 61.26 285.785 60.27 286.125 59.25 C286.82625 60.0234375 287.5275 60.796875 288.25 61.59375 C289.20787802 62.64624789 290.16624522 63.69830071 291.125 64.75 C291.62104736 65.29446777 292.11709473 65.83893555 292.62817383 66.39990234 C296.21337619 70.31239657 299.91310991 74.07076973 303.76171875 77.7265625 C305.125 79.25 305.125 79.25 305.125 81.25 C306.12144531 81.3221875 307.11789062 81.394375 308.14453125 81.46875 C312.71059772 82.12153776 316.00226349 84.26623332 319.8125 86.75 C325.14347851 90.22647835 325.14347851 90.22647835 331.125 92.25 C331.125 91.26 331.125 90.27 331.125 89.25 C331.785 89.25 332.445 89.25 333.125 89.25 C333.7746875 90.85875 333.7746875 90.85875 334.4375 92.5 C335.40972591 94.80093466 336.27068243 96.4388476 337.8125 98.4375 C339.125 100.25 339.125 100.25 339.125 104.25 C336.98335686 103.20638175 334.90499547 102.12131811 332.84765625 100.91796875 C323.19243958 95.54450749 312.85886218 93.49753438 302.125 91.25 C302.4859375 91.80429688 302.846875 92.35859375 303.21875 92.9296875 C303.6828125 93.65414062 304.146875 94.37859375 304.625 95.125 C305.0890625 95.84429687 305.553125 96.56359375 306.03125 97.3046875 C307.125 99.25 307.125 99.25 307.125 101.25 C302.0813188 101.79039441 299.16436152 101.7183191 295 98.6875 C291.76430557 96.01121836 289.04104912 93.06296794 286.44921875 89.765625 C285.00871976 87.9835364 285.00871976 87.9835364 282.125 86.25 C278.99978167 86.08300768 278.99978167 86.08300768 276.125 86.25 C276.125 85.59 276.125 84.93 276.125 84.25 C283.04588947 83.64290443 285.79613839 84.80928199 291.125 89.25 C291.125 87.93 291.125 86.61 291.125 85.25 C282.65042478 77.10136998 268.31394259 75.50844455 257.125 74.25 C257.125 74.91 257.125 75.57 257.125 76.25 C253.825 76.58 250.525 76.91 247.125 77.25 C247.125 77.91 247.125 78.57 247.125 79.25 C249.435 80.24 251.745 81.23 254.125 82.25 C254.125 83.24 254.125 84.23 254.125 85.25 C255.00317383 85.52529541 255.88134766 85.80059082 256.78613281 86.08422852 C262.07870413 87.93213931 266.91402286 90.59582226 271.875 93.1875 C272.98230469 93.76000488 274.08960938 94.33250977 275.23046875 94.92236328 C282.82893998 98.90058023 290.1815755 103.14868256 297.20214844 108.08569336 C301.87706601 111.17681876 304.90423758 111.60691229 310.4375 110.63134766 C310.994375 110.50550293 311.55125 110.3796582 312.125 110.25 C312.00898437 111.29414062 311.89296875 112.33828125 311.7734375 113.4140625 C311.77720344 117.35531145 311.77720344 117.35531145 314.4140625 120.0859375 C315.4959733 120.97040461 316.61099072 121.81538842 317.75 122.625 C318.35231445 123.0590918 318.95462891 123.49318359 319.57519531 123.94042969 C327.6616231 129.06675416 338.78088632 129.60676711 348.125 128.25 C348.785 127.59 349.445 126.93 350.125 126.25 C350.41632812 126.91386719 350.70765625 127.57773438 351.0078125 128.26171875 C353.65613066 133.96642924 355.83969606 137.76394847 361.125 141.25 C362.44693354 141.62600614 363.77959237 141.96934507 365.125 142.25 C364.64289062 141.36957031 364.16078125 140.48914063 363.6640625 139.58203125 C363.02589698 138.40893287 362.38788423 137.23575136 361.75 136.0625 C361.12351562 134.91394531 360.49703125 133.76539063 359.8515625 132.58203125 C358.42806245 129.83486938 357.20441553 127.14479619 356.125 124.25 C356.785 124.394375 357.445 124.53875 358.125 124.6875 C361.81511045 125.37939571 365.37788514 125.94285944 369.125 126.25 C369.785 125.59 370.445 124.93 371.125 124.25 C373.40234375 124.38671875 373.40234375 124.38671875 376.0625 124.9375 C376.93777344 125.10636719 377.81304688 125.27523437 378.71484375 125.44921875 C381.4471761 126.35704392 382.41248018 126.95355509 384.125 129.25 C385.11431407 131.42366435 386.06827588 133.61353452 387 135.8125 C390.75048311 144.04275662 396.70020417 148.40434377 404.125 153.25 C404.125 152.59 404.125 151.93 404.125 151.25 C404.125 150.26 404.125 149.27 404.125 148.25 C404.785 148.25 405.445 148.25 406.125 148.25 C406.41632812 148.93964844 406.70765625 149.62929687 407.0078125 150.33984375 C411.43519275 160.48940414 415.77771739 167.75365451 424.7578125 174.42578125 C427.1089218 176.23760971 429.18050064 178.00531295 431.125 180.25 C431.125 181.24 431.125 182.23 431.125 183.25 C430.465 183.25 429.805 183.25 429.125 183.25 C433.15264646 188.64057379 433.15264646 188.64057379 438.875 191.9375 C442.125 193.25 442.125 193.25 443.5625 195.4375 C443.748125 196.035625 443.93375 196.63375 444.125 197.25 C443.135 197.58 442.145 197.91 441.125 198.25 C439.63239598 197.08908576 438.14735161 195.91378428 436.7421875 194.6484375 C434.94553236 193.02968775 434.94553236 193.02968775 431.9375 191.1875 C428.53071108 188.84060097 426.88456573 186.569368 424.84765625 183.03125 C422.82848352 179.77127044 420.57988606 176.72754653 418.25 173.6875 C417.82847656 173.12353516 417.40695312 172.55957031 416.97265625 171.97851562 C414.3377355 168.53377978 411.6210418 165.81251093 408.125 163.25 C407.795 164.24 407.465 165.23 407.125 166.25 C406.135 166.25 405.145 166.25 404.125 166.25 C404.785 166.70375 405.445 167.1575 406.125 167.625 C406.785 168.16125 407.445 168.6975 408.125 169.25 C408.125 169.91 408.125 170.57 408.125 171.25 C406.05906242 170.85072656 403.99730473 170.42979277 401.9375 170 C400.21466797 169.65195312 400.21466797 169.65195312 398.45703125 169.296875 C394.85225509 168.16430758 392.78807527 166.91307527 390.125 164.25 C389.8125 161 389.8125 161 390.125 158.25 C392.64975462 156.98762269 394.43700466 157.15143596 397.25 157.1875 C398.16007813 157.19652344 399.07015625 157.20554688 400.0078125 157.21484375 C401.05582031 157.23224609 401.05582031 157.23224609 402.125 157.25 C401.41214844 156.6209375 400.69929687 155.991875 399.96484375 155.34375 C391.1853622 147.49775303 391.1853622 147.49775303 387.6875 143.3125 C383.0355825 137.75984358 377.51602165 133.06562525 372.125 128.25 C372.02703125 129.1678125 371.9290625 130.085625 371.828125 131.03125 C369.83147475 147.41755203 369.83147475 147.41755203 363.125 153.25 C362.135 153.58 361.145 153.91 360.125 154.25 C364.32383623 158.03919367 367.89902719 160.13951098 373.125 162.25 C375.125 164.25 375.125 164.25 375.125 168.25 C376.62792063 170.01845288 376.62792063 170.01845288 378.6875 171.5625 C384.70568839 176.54233898 389.9598904 181.9799457 395.05078125 187.89453125 C397.13909295 190.26600386 399.27961064 192.57840873 401.43652344 194.88720703 C407.27102929 201.13898391 412.8389859 207.52156048 418.125 214.25 C418.59486328 214.84731934 419.06472656 215.44463867 419.54882812 216.06005859 C478.78673063 291.65836521 513.17487763 380.7296512 521.125 476.25 C521.19702637 477.10013672 521.26905273 477.95027344 521.34326172 478.82617188 C522.83289658 497.55526796 522.21630745 516.47718849 522.125 535.25 C522.58463135 534.89268799 523.0442627 534.53537598 523.51782227 534.16723633 C524.13197998 533.70599365 524.7461377 533.24475098 525.37890625 532.76953125 C525.9829126 532.30909424 526.58691895 531.84865723 527.20922852 531.37426758 C530.15882633 529.64330059 532.8073004 529.91145922 536.125 530.25 C536.125 528.27 536.125 526.29 536.125 524.25 C537.115 524.58 538.105 524.91 539.125 525.25 C541.75990015 530.58047235 541.28563575 536.0255971 541.125 541.8125 C540.96531871 547.58897076 540.91652232 551.86683566 543.125 557.25 C542.89822023 563.30721455 540.6144692 568.12279374 538.0625 573.5 C537.31658456 575.08618599 536.57547352 576.6746427 535.83984375 578.265625 C535.51105225 578.95946289 535.18226074 579.65330078 534.84350586 580.36816406 C533.9466521 582.38138731 533.9466521 582.38138731 534.125 585.25 C535.775 585.91 537.425 586.57 539.125 587.25 C539.455 583.62 539.785 579.99 540.125 576.25 C540.455 576.25 540.785 576.25 541.125 576.25 C541.22977512 582.03591511 541.11750545 587.54309366 540.125 593.25 C541.445 592.26 542.765 591.27 544.125 590.25 C543.45415297 594.9006017 541.63061333 598.9270643 539.75 603.1875 C531.44396203 622.5499322 524.66170926 642.47312171 518.08129883 662.47265625 C505.38249198 701.04428481 491.85981691 740.2362415 466.125 772.25 C464.90917449 773.84849569 463.69958917 775.45178402 462.5 777.0625 C461.71625 778.114375 460.9325 779.16625 460.125 780.25 C461.445 780.91 462.765 781.57 464.125 782.25 C463.320625 782.78625 462.51625 783.3225 461.6875 783.875 C458.54262958 786.78975795 458.36839632 788.03113044 458.125 792.25 C458.06710383 794.92287297 458.07888693 797.57544214 458.125 800.25 C456.23045176 801.21087136 454.33430419 802.16858969 452.4375 803.125 C451.38175781 803.65867187 450.32601562 804.19234375 449.23828125 804.7421875 C441.99546632 808.25 441.99546632 808.25 438.125 808.25 C438.125 809.9 438.125 811.55 438.125 813.25 C440.105 813.58 442.085 813.91 444.125 814.25 C438.66131305 829.73502231 420.55460036 844.03387086 408.00390625 853.8828125 C397.55618423 862.47347674 385.9064919 872.38074713 377.875 883.3125 C376.125 885.25 376.125 885.25 373.5625 885.6875 C371.125 885.25 371.125 885.25 368.125 883.25 C368.04507813 883.97445312 367.96515625 884.69890625 367.8828125 885.4453125 C366.94408571 888.91956937 365.45922529 890.51572029 363 893.125 C362.19304688 893.98867188 361.38609375 894.85234375 360.5546875 895.7421875 C357.8880311 898.49458848 355.19805411 901.21668864 352.4375 903.875 C351.00935687 905.23621473 351.00935687 905.23621473 350.125 907.25 C350.785 907.58 351.445 907.91 352.125 908.25 C350.99578125 908.435625 350.99578125 908.435625 349.84375 908.625 C342.78678364 909.99528473 337.22595614 912.03445852 330.9375 915.4375 C325.56028985 918.30449138 321.27743069 920.13648643 315.04296875 919.921875 C312.44387886 919.01139952 311.57107744 917.53087925 310.125 915.25 C307.56250025 917.56232422 307.56250025 917.56232422 305.125 920.25 C305.125 921.24 305.125 922.23 305.125 923.25 C306.775 923.58 308.425 923.91 310.125 924.25 C306.36558732 927.43268459 302.3934485 929.89374935 298.125 932.3125 C292.03004881 935.8501922 286.67792539 939.83893794 281.42578125 944.53149414 C276.36965413 949.04553975 270.93709396 951.91398507 264.82421875 954.76171875 C264.11923752 955.09137131 263.41425629 955.42102386 262.68791199 955.76066589 C219.21469441 975.9951253 219.21469441 975.9951253 196.125 977.25 C195.795 978.24 195.465 979.23 195.125 980.25 C193.05859375 981.41796875 193.05859375 981.41796875 190.5625 982.4375 C189.73621094 982.78167969 188.90992188 983.12585938 188.05859375 983.48046875 C187.42050781 983.73441406 186.78242187 983.98835937 186.125 984.25 C188.51073379 986.14213369 190.19675348 987.27391783 193.125 988.25 C193.125 988.91 193.125 989.57 193.125 990.25 C190.2085095 991.06313676 187.29181631 991.8755335 184.375 992.6875 C183.55 992.91759766 182.725 993.14769531 181.875 993.38476562 C181.07578125 993.60712891 180.2765625 993.82949219 179.453125 994.05859375 C178.7199707 994.26282959 177.98681641 994.46706543 177.23144531 994.67749023 C176.18875488 994.96088257 176.18875488 994.96088257 175.125 995.25 C174.44920898 995.4344165 173.77341797 995.61883301 173.07714844 995.80883789 C170.0163477 996.50054211 167.24548453 996.47694433 164.125 996.25 C163.42117188 995.49783203 163.42117188 995.49783203 162.703125 994.73046875 C161.21534175 993.03309338 161.21534175 993.03309338 158.92578125 993.03515625 C150.2641799 994.00057806 143.87271856 996.42458421 138.125 1003.25 C138.125 1003.91 138.125 1004.57 138.125 1005.25 C133.85883684 1006.38764351 130.56013689 1007.25 126.125 1007.25 C126.125 1006.59 126.125 1005.93 126.125 1005.25 C127.74393909 1003.99821317 129.42116405 1002.82102419 131.125 1001.6875 C132.80678516 1000.56397408 134.47779263 999.42363525 136.125 998.25 C136.125 997.92 136.125 997.59 136.125 997.25 C133.485 996.92 130.845 996.59 128.125 996.25 C127.86976563 996.85457031 127.61453125 997.45914063 127.3515625 998.08203125 C125.25830654 1001.78189449 121.90187978 1003.48041297 118.125 1005.25 C115.29455556 1006.02193939 113.10382287 1006.19864098 110.125 1006.25 C109.465 1005.59 108.805 1004.93 108.125 1004.25 C110.765 1003.26 113.405 1002.27 116.125 1001.25 C116.125 1000.59 116.125 999.93 116.125 999.25 C112.9072793 998.24726843 110.3385374 998.25626602 107 998.625 C105.69675781 998.76035156 105.69675781 998.76035156 104.3671875 998.8984375 C102.09514954 999.1385639 102.09514954 999.1385639 100.125 1000.25 C101.445 1002.56 102.765 1004.87 104.125 1007.25 C101.59138401 1008.51680799 99.79829639 1008.39769389 96.96142578 1008.42700195 C95.87516403 1008.43964081 94.78890228 1008.45227966 93.66972351 1008.46530151 C92.48191788 1008.47288483 91.29411224 1008.48046814 90.0703125 1008.48828125 C88.22340569 1008.50304001 88.22340569 1008.50304001 86.33918762 1008.51809692 C82.30941589 1008.54358252 78.27983912 1008.55707514 74.25 1008.5625 C73.56462788 1008.5635033 72.87925575 1008.56450661 72.17311478 1008.56554031 C49.90398721 1008.58559041 28.14742413 1007.71136642 6.125 1004.25 C4.296917 1003.96831452 2.46878954 1003.68691749 0.640625 1003.40576172 C-15.56522877 1000.89847629 -31.75480595 998.26402626 -47.875 995.25 C-48.205 994.26 -48.535 993.27 -48.875 992.25 C-50.78722157 991.13592069 -50.78722157 991.13592069 -53.1875 990.3125 C-54.08597656 989.97347656 -54.98445313 989.63445313 -55.91015625 989.28515625 C-58.96595845 988.21824244 -62.04091371 987.23182522 -65.125 986.25 C-69.6456396 984.78195724 -73.13121514 983.16183267 -76.875 980.25 C-76.545 978.27 -76.215 976.29 -75.875 974.25 C-73.895 974.58 -71.915 974.91 -69.875 975.25 C-75.26363648 970.28287404 -75.26363648 970.28287404 -81.875 967.25 C-82.205 968.24 -82.535 969.23 -82.875 970.25 C-85.09201147 971.83965571 -87.45362473 972.97327486 -89.875 974.25 C-87.33043849 977.21865509 -84.38505335 978.6119751 -80.875 980.25 C-80.875 980.58 -80.875 980.91 -80.875 981.25 C-81.84324707 981.22643433 -81.84324707 981.22643433 -82.83105469 981.20239258 C-85.76228029 981.13994198 -88.69336579 981.1009777 -91.625 981.0625 C-92.64078125 981.03736328 -93.6565625 981.01222656 -94.703125 980.98632812 C-96.17265625 980.97182617 -96.17265625 980.97182617 -97.671875 980.95703125 C-99.02297363 980.93346558 -99.02297363 980.93346558 -100.40136719 980.90942383 C-103.36029157 981.3168162 -104.60544502 982.36812595 -106.875 984.25 C-115.6381515 987.1710505 -124.12213018 984.49425451 -132.17578125 980.69140625 C-140.35292856 976.5429124 -148.02366293 971.65688674 -155.72485352 966.69604492 C-163.95859663 961.44909275 -172.60013778 956.61370148 -181.7578125 953.1640625 C-183.875 952.25 -183.875 952.25 -184.875 950.25 C-187.27549968 949.00496472 -189.6788012 947.83549313 -192.125 946.6875 C-204.82840096 940.47187213 -214.89047322 932.68068579 -224.96459961 922.83398438 C-228.73807609 919.15742402 -232.37004538 915.99245281 -236.875 913.25 C-236.545 910.94 -236.215 908.63 -235.875 906.25 C-236.90625 906.188125 -237.9375 906.12625 -239 906.0625 C-255.95795027 903.84145873 -268.71732301 894.03921239 -279.375 881.25 C-279.87 880.59 -280.365 879.93 -280.875 879.25 C-279.885 876.775 -279.885 876.775 -278.875 874.25 C-280.15375 874.188125 -281.4325 874.12625 -282.75 874.0625 C-292.47755182 872.96126772 -300.40292316 867.31835375 -306.75 860.125 C-307.875 858.25 -307.875 858.25 -308.15625 856.3984375 C-309.1821685 853.3318333 -311.04071428 852.06550281 -313.5 850 C-326.17886716 838.95828929 -326.17886716 838.95828929 -326.875 833.25 C-326.66875 832.42242188 -326.4625 831.59484375 -326.25 830.7421875 C-325.60241646 828.22856409 -325.60241646 828.22856409 -327.0625 826.2578125 C-327.9596875 825.32582031 -327.9596875 825.32582031 -328.875 824.375 C-329.52597656 823.68792969 -330.17695313 823.00085938 -330.84765625 822.29296875 C-331.51667969 821.61878906 -332.18570313 820.94460938 -332.875 820.25 C-333.45121094 819.64800781 -334.02742188 819.04601562 -334.62109375 818.42578125 C-337.57734173 815.38760492 -340.64818225 812.56057986 -343.875 809.8125 C-350.24688049 804.30670035 -357.32142899 797.81968365 -358.625 789.1875 C-358.82233589 786.07945976 -358.94542716 784.10447242 -357.875 781.25 C-358.55820312 781.05535156 -359.24140625 780.86070312 -359.9453125 780.66015625 C-363.98956844 778.71352106 -366.64502161 775.8815745 -369.75 772.6875 C-370.37060303 772.06069336 -370.99120605 771.43388672 -371.63061523 770.78808594 C-375.57890086 766.74691779 -379.16853032 762.60690268 -382.34765625 757.921875 C-383.84178119 756.04268995 -383.84178119 756.04268995 -386.49609375 755.203125 C-387.28113281 754.88859375 -388.06617188 754.5740625 -388.875 754.25 C-389.37 752.765 -389.37 752.765 -389.875 751.25 C-389.215 750.92 -388.555 750.59 -387.875 750.25 C-388.26171875 749.83492187 -388.6484375 749.41984375 -389.046875 748.9921875 C-394.30847344 742.76683093 -396.03278118 736.05277861 -397.875 728.25 C-398.05305176 727.50814453 -398.23110352 726.76628906 -398.41455078 726.00195312 C-399.31032717 722.26210628 -400.1876716 718.51883335 -401.04296875 714.76953125 C-401.80564516 711.30891681 -401.80564516 711.30891681 -402.875 708.25 C-404.89008358 707.51676204 -404.89008358 707.51676204 -406.875 707.25 C-407.349375 708.075 -407.82375 708.9 -408.3125 709.75 C-408.828125 710.575 -409.34375 711.4 -409.875 712.25 C-410.205 712.25 -410.535 712.25 -410.875 712.25 C-411.18630859 711.05117187 -411.18630859 711.05117187 -411.50390625 709.828125 C-415.01505656 697.31138833 -421.38813366 687.58363579 -429.14282227 677.32470703 C-432.97412007 672.24665777 -435.15656296 669.07564446 -435 662.5 C-434.98195313 661.51515625 -434.96390625 660.5303125 -434.9453125 659.515625 C-434.91050781 658.39414063 -434.91050781 658.39414063 -434.875 657.25 C-432.235 655.93 -429.595 654.61 -426.875 653.25 C-427.75144433 651.07271927 -427.75144433 651.07271927 -429.875 649.25 C-432.23584155 649.03380572 -434.45367241 649.12622156 -436.81640625 649.3046875 C-438.875 649.25 -438.875 649.25 -440.875 647.25 C-441.0703125 644.4296875 -441.0703125 644.4296875 -441 641.125 C-440.98195313 640.02929688 -440.96390625 638.93359375 -440.9453125 637.8046875 C-440.92210937 636.96164062 -440.89890625 636.11859375 -440.875 635.25 C-439.39 636.735 -439.39 636.735 -437.875 638.25 C-435.52887348 632.92219683 -433.19555404 627.58899141 -430.875 622.25 C-430.09382813 620.45369141 -430.09382813 620.45369141 -429.296875 618.62109375 C-428.84828125 617.57050781 -428.3996875 616.51992188 -427.9375 615.4375 C-427.53660156 614.50292969 -427.13570313 613.56835938 -426.72265625 612.60546875 C-425.70569552 610.19676117 -425.70569552 610.19676117 -425.875 607.25 C-426.205 608.24 -426.535 609.23 -426.875 610.25 C-427.535 610.25 -428.195 610.25 -428.875 610.25 C-432.19560744 600.7032536 -430.88582278 592.00999409 -428.85473633 582.31494141 C-427.99090635 577.98327226 -427.85303298 574.55444386 -428.875 570.25 C-432.64124671 568.99458443 -434.24688934 569.87938042 -437.875 571.25 C-437.86976318 570.66621582 -437.86452637 570.08243164 -437.85913086 569.48095703 C-437.83805919 566.77898276 -437.82524541 564.07702589 -437.8125 561.375 C-437.79993164 559.99828125 -437.79993164 559.99828125 -437.78710938 558.59375 C-437.77118513 554.07126357 -437.89725453 549.6955876 -438.46875 545.20703125 C-439.06132248 539.8880754 -438.34440378 535.05803146 -437.4375 529.8125 C-435.52840846 519.0716875 -435.52840846 519.0716875 -435.875 508.25 C-436.535 507.59 -437.195 506.93 -437.875 506.25 C-438.865 507.24 -439.855 508.23 -440.875 509.25 C-440.97523438 498.38013796 -440.87064429 487.61358455 -440.1015625 476.76953125 C-439.81275281 472.28302202 -439.52879469 467.74048653 -439.875 463.25 C-440.205 462.92 -440.535 462.59 -440.875 462.25 C-441.8764326 447.90090149 -441.05395752 432.83693055 -435.875 419.25 C-435.215 418.92 -434.555 418.59 -433.875 418.25 C-433.875 420.89 -433.875 423.53 -433.875 426.25 C-432.555 425.59 -431.235 424.93 -429.875 424.25 C-430.019375 423.59 -430.16375 422.93 -430.3125 422.25 C-430.5909375 420.765 -430.5909375 420.765 -430.875 419.25 C-431.1225 417.97125 -431.37 416.6925 -431.625 415.375 C-432.15960476 411.01591505 -430.89827715 408.14668193 -428.875 404.25 C-428.483125 403.445625 -428.09125 402.64125 -427.6875 401.8125 C-427.419375 401.296875 -427.15125 400.78125 -426.875 400.25 C-427.61234375 400.15589844 -428.3496875 400.06179688 -429.109375 399.96484375 C-432.28164639 399.14489225 -433.72851605 398.01232591 -436.125 395.8125 C-436.81078125 395.19503906 -437.4965625 394.57757813 -438.203125 393.94140625 C-440.05687375 392.06600156 -440.82878965 391.01500492 -440.98852539 388.37060547 C-440.98067017 387.25516357 -440.98067017 387.25516357 -440.97265625 386.1171875 C-440.96943359 385.31152344 -440.96621094 384.50585938 -440.96289062 383.67578125 C-440.95451172 382.83402344 -440.94613281 381.99226563 -440.9375 381.125 C-440.93298828 380.27550781 -440.92847656 379.42601562 -440.92382812 378.55078125 C-440.91202874 376.45049091 -440.89409306 374.3502367 -440.875 372.25 C-440.215 371.92 -439.555 371.59 -438.875 371.25 C-438.875 373.56 -438.875 375.87 -438.875 378.25 C-438.215 377.92 -437.555 377.59 -436.875 377.25 C-436.46770772 374.92843403 -436.13061323 372.5931213 -435.875 370.25 C-432.875 371.25 -432.875 371.25 -431.875 373.25 C-431.936875 371.97125 -431.99875 370.6925 -432.0625 369.375 C-432.0214949 360.57257197 -428.35791391 352.7733877 -425.08105469 344.74145508 C-423.13447596 339.96376735 -421.42801999 335.16789665 -419.875 330.25 C-418.885 331.735 -418.885 331.735 -417.875 333.25 C-415.29119823 333.50030977 -415.29119823 333.50030977 -412.875 333.25 C-413.1225 332.569375 -413.37 331.88875 -413.625 331.1875 C-413.9760658 327.06247683 -412.24142436 324.46420879 -409.875 321.25 C-408.22759924 319.5642876 -406.56433922 317.8936814 -404.875 316.25 C-404.545 315.26 -404.215 314.27 -403.875 313.25 C-405.195 313.25 -406.515 313.25 -407.875 313.25 C-406.63671631 309.96046154 -405.25160356 307.04404426 -403.36328125 304.08203125 C-402.60978394 302.88682861 -402.60978394 302.88682861 -401.84106445 301.66748047 C-401.29538818 300.80783691 -400.74971191 299.94819336 -400.1875 299.0625 C-395.79817665 292.07912278 -391.57266586 285.03315625 -387.51342773 277.8527832 C-358.6040487 226.74823711 -358.6040487 226.74823711 -340.75390625 216.44921875 C-336.73217611 213.37698799 -335.71206799 209.71849451 -334.15429688 205.11914062 C-333.46484375 203.26953125 -333.46484375 203.26953125 -331.875 200.25 C-329.328125 199.62109375 -329.328125 199.62109375 -326.875 199.25 C-325.51474988 197.21885004 -325.51474988 197.21885004 -324.6875 194.5 C-322.30320265 188.16238382 -319.50019653 182.10053935 -316.5625 176 C-316.10528564 175.04641602 -315.64807129 174.09283203 -315.17700195 173.11035156 C-314.07890338 170.82231722 -312.97826709 168.53554545 -311.875 166.25 C-311.545 166.25 -311.215 166.25 -310.875 166.25 C-310.545 168.89 -310.215 171.53 -309.875 174.25 C-304.7056511 173.84443869 -304.7056511 173.84443869 -299.875 172.25 C-299.26078459 169.76081123 -298.75230937 167.33267748 -298.3125 164.8125 C-296.9819869 157.4639738 -296.9819869 157.4639738 -295.875 155.25 C-295.111875 155.415 -294.34875 155.58 -293.5625 155.75 C-290.83903764 156.34145396 -290.83903764 156.34145396 -287.875 156.25 C-286.17536263 154.6163888 -286.17536263 154.6163888 -284.5625 152.5 C-282.27144186 149.72457439 -280.76930747 148.18699099 -277.625 146.3125 C-274.63449975 144.06962481 -274.5077491 143.69637155 -273.625 140.3125 C-271.53041673 132.69124522 -265.56069862 126.52597624 -260.47558594 120.62646484 C-258.36255269 118.16328483 -256.91284887 116.36354662 -255.875 113.25 C-254.740625 113.25 -253.60625 113.25 -252.4375 113.25 C-247.21751327 112.65975415 -244.6796634 109.58410591 -241.05078125 106.04296875 C-238.14356714 103.6472573 -235.54961055 103.61746105 -231.875 103.25 C-229.88416823 100.8248212 -229.88416823 100.8248212 -228.875 98.25 C-230.195 97.26 -231.515 96.27 -232.875 95.25 C-232.71 94.46625 -232.545 93.6825 -232.375 92.875 C-231.8126293 90.36791961 -231.8126293 90.36791961 -231.875 88.25 C-232.535 87.92 -233.195 87.59 -233.875 87.25 C-233.875 85.93 -233.875 84.61 -233.875 83.25 C-230.88066284 82.25188761 -228.30831655 82.07742213 -225.17529297 81.95996094 C-215.00290188 81.57375189 -204.92410688 81.17230176 -196.76171875 74.4921875 C-194.34305454 72.89977504 -191.96414304 72.2492999 -189.1875 71.4375 C-180.29863826 68.66249466 -173.40830958 63.30135886 -166.21826172 57.52368164 C-155.89686525 49.27257447 -144.54259791 42.48204795 -131.125 41.87109375 C-123.56924001 41.44379762 -116.29089645 40.22802233 -108.88330078 38.72094727 C-106.8498139 38.30737766 -104.81397798 37.90751917 -102.77734375 37.50976562 C-96.72812855 36.31254037 -90.78837892 35.00094396 -84.875 33.25 C-85.535 31.27 -86.195 29.29 -86.875 27.25 C-79.06710235 22.94482968 -71.31573311 19.50257491 -62.8125 16.8125 C-62.00385498 16.55388184 -61.19520996 16.29526367 -60.36206055 16.02880859 C-56.44016785 14.83210433 -53.02446945 13.90768964 -48.875 14.25 C-49.205 11.94 -49.535 9.63 -49.875 7.25 C-47.07552083 6.69010417 -44.27604167 6.13020833 -41.4765625 5.5703125 C-40.32929688 5.34085937 -39.18203125 5.11140625 -38 4.875 C-31.3203125 3.5390625 -31.3203125 3.5390625 -27.98583984 2.8828125 C-26.10007626 2.49920716 -24.21833419 2.09378987 -22.34619141 1.6484375 C-14.91678097 -0.0718312 -7.59954536 -0.04587251 0 0 Z M90.125 8.25 C95.81030389 13.01444481 103.78399109 14.84521694 111.125 14.25 C105.97507673 9.83578006 102.13862812 7.96051498 95.3125 8.125 C94.33667969 8.14304687 93.36085938 8.16109375 92.35546875 8.1796875 C91.61941406 8.20289063 90.88335938 8.22609375 90.125 8.25 Z M108.125 41.25 C109.6249411 42.7499411 111.07159605 42.56607651 113.16015625 42.78515625 C114.37348633 42.91567383 114.37348633 42.91567383 115.61132812 43.04882812 C116.46146484 43.13583984 117.31160156 43.22285156 118.1875 43.3125 C119.04150391 43.40337891 119.89550781 43.49425781 120.77539062 43.58789062 C122.89151535 43.81250722 125.00820894 44.03175227 127.125 44.25 C127.125 43.26 127.125 42.27 127.125 41.25 C131.745 41.25 136.365 41.25 141.125 41.25 C141.125 42.24 141.125 43.23 141.125 44.25 C139.145 44.58 137.165 44.91 135.125 45.25 C135.125 45.58 135.125 45.91 135.125 46.25 C139.00102877 47.11252919 142.87879394 47.96672451 146.75830078 48.81347656 C148.72133166 49.24371672 150.68294567 49.68040515 152.64453125 50.1171875 C154.51044922 50.52324219 154.51044922 50.52324219 156.4140625 50.9375 C157.55568848 51.18886719 158.69731445 51.44023438 159.87353516 51.69921875 C163.03148339 52.23415877 165.93089253 52.29807903 169.125 52.25 C171.43359375 52.90625 171.43359375 52.90625 173.5625 53.75 C177.645431 55.22400729 180.80927858 55.52547158 185.125 55.25 C181.10152412 51.78028623 181.10152412 51.78028623 176.125 50.25 C176.125 49.59 176.125 48.93 176.125 48.25 C187.63945666 53.83451148 187.63945666 53.83451148 192.5625 57 C197.64615427 60.35741702 197.64615427 60.35741702 203.55078125 61.046875 C207.61657699 59.78826752 208.97960637 57.18384893 211.125 53.6640625 C212.42386369 51.09914808 212.42386369 51.09914808 211.625 47.5 C208.52449604 42.1241262 201.71305962 40.11268654 196.125 38.25 C190.51484061 37.8821207 185.84885569 38.45629052 180.375 39.75 C170.29679501 42.04396036 161.08605926 41.9513042 151.125 39.25 C151.0425 38.46625 150.96 37.6825 150.875 36.875 C150.40794855 34.18048766 150.40794855 34.18048766 148.4453125 33.10546875 C137.39148096 29.03006621 116.60995324 32.76504676 108.125 41.25 Z M23.5 36.25 C22.38625 36.91 21.2725 37.57 20.125 38.25 C22.54630331 39.46065165 23.60793659 39.19602533 26.25 38.8125 C27.52875 38.626875 28.8075 38.44125 30.125 38.25 C29.795 36.93 29.465 35.61 29.125 34.25 C26.66198577 34.25 25.60436722 35.00296757 23.5 36.25 Z M-68.875 37.25 C-69.58546807 41.34885427 -70.13592885 44.66923856 -68.9375 48.6875 C-68.586875 49.863125 -68.23625 51.03875 -67.875 52.25 C-66.14573126 51.93806536 -64.41658956 51.62542638 -62.6875 51.3125 C-61.72457031 51.13847656 -60.76164062 50.96445312 -59.76953125 50.78515625 C-57.13260028 50.2976265 -54.5030095 49.78328895 -51.875 49.25 C-51.84811849 47.60425434 -51.82865877 45.95838587 -51.8125 44.3125 C-51.80089844 43.39597656 -51.78929687 42.47945312 -51.77734375 41.53515625 C-51.61550951 39.28406673 -51.61550951 39.28406673 -52.875 38.25 C-55.56735776 38.01321284 -58.23998156 37.82801975 -60.9375 37.6875 C-61.69611328 37.64431641 -62.45472656 37.60113281 -63.23632812 37.55664062 C-65.11565438 37.45026367 -66.99530244 37.34960066 -68.875 37.25 Z M-50.875 39.25 C-50.215 42.22 -49.555 45.19 -48.875 48.25 C-41.45 46.765 -41.45 46.765 -33.875 45.25 C-37.00682072 42.11817928 -38.2401677 41.61288079 -42.375 40.5625 C-43.81359375 40.18544922 -43.81359375 40.18544922 -45.28125 39.80078125 C-47.92216369 39.1461411 -47.92216369 39.1461411 -50.875 39.25 Z M-139.875 59.25 C-140.44347656 59.83910156 -141.01195312 60.42820313 -141.59765625 61.03515625 C-143.93952039 63.31446642 -146.18264387 65.39335122 -148.875 67.25 C-151.20991639 66.92794257 -153.54342508 66.59541851 -155.875 66.25 C-163.42037449 71.60638672 -168.24925188 82.41057521 -169.875 91.25 C-166.59911664 89.82381679 -163.33028393 88.38213375 -160.0625 86.9375 C-158.6693457 86.33131836 -158.6693457 86.33131836 -157.24804688 85.71289062 C-156.35537109 85.31650391 -155.46269531 84.92011719 -154.54296875 84.51171875 C-153.72078857 84.15037842 -152.8986084 83.78903809 -152.05151367 83.41674805 C-146.57625703 80.48166656 -145.01179793 75.63877599 -142.625 70.1875 C-142.24859375 69.35927734 -141.8721875 68.53105469 -141.484375 67.67773438 C-140.9584375 66.48954102 -140.9584375 66.48954102 -140.421875 65.27734375 C-140.10057617 64.55281006 -139.77927734 63.82827637 -139.44824219 63.08178711 C-138.62063369 61.18045653 -138.62063369 61.18045653 -139.875 59.25 Z M-221.125 85.1875 C-221.83140625 85.56777344 -222.5378125 85.94804688 -223.265625 86.33984375 C-224.06226563 86.79037109 -224.06226563 86.79037109 -224.875 87.25 C-224.875 88.57 -224.875 89.89 -224.875 91.25 C-223.885 91.58 -222.895 91.91 -221.875 92.25 C-218.905 89.61 -215.935 86.97 -212.875 84.25 C-217.16127048 83.17843238 -217.53575382 83.2134146 -221.125 85.1875 Z M-298.875 178.25 C-298.875 181.88 -298.875 185.51 -298.875 189.25 C-296.895 187.6 -294.915 185.95 -292.875 184.25 C-294.12046405 180.51360784 -295.50904953 180.06243487 -298.875 178.25 Z M-413.875 404.25 C-414.865 405.735 -414.865 405.735 -415.875 407.25 C-415.545 408.24 -415.215 409.23 -414.875 410.25 C-414.215 410.25 -413.555 410.25 -412.875 410.25 C-412.545 408.27 -412.215 406.29 -411.875 404.25 C-412.535 404.25 -413.195 404.25 -413.875 404.25 Z M-420.875 406.25 C-420.875 412.19 -420.875 418.13 -420.875 424.25 C-415.02752243 420.244437 -415.02752243 420.244437 -414.1484375 417.1875 C-414.39985953 412.39114126 -415.22006203 409.68994162 -418.875 406.25 C-419.535 406.25 -420.195 406.25 -420.875 406.25 Z M-386.875 751.25 C-385.39 752.24 -385.39 752.24 -383.875 753.25 C-383.875 752.59 -383.875 751.93 -383.875 751.25 C-384.865 751.25 -385.855 751.25 -386.875 751.25 Z " fill="#C93467" transform="translate(440.875,-0.25)"/>
<path d="M0 0 C0 57.09 0 114.18 0 173 C6.93 169.7 13.86 166.4 21 163 C54.79793123 149.48082751 88.969271 143.87181107 125.1875 143.75 C126.07979309 143.74464233 126.97208618 143.73928467 127.89141846 143.73376465 C143.85518422 143.66118041 159.52015829 144.62299461 175.125 148.1875 C176.55368408 148.50787231 176.55368408 148.50787231 178.01123047 148.8347168 C201.62290875 154.27570229 224.71571919 161.64143427 246.15869141 173.03076172 C247.930207 173.96326197 249.72071741 174.85940169 251.51171875 175.75390625 C263.58333497 181.90259526 274.77850771 189.43596051 286 197 C286.71671875 197.48291504 287.4334375 197.96583008 288.171875 198.46337891 C308.4688144 212.25766572 327.22537182 229.47418109 341.7421875 249.29785156 C343.03039472 251.04113199 344.35456407 252.75167698 345.6875 254.4609375 C360.31247281 273.45518599 371.4810504 295.27030178 379 318 C379.28488281 318.84175781 379.56976562 319.68351562 379.86328125 320.55078125 C380.35676687 322.01605393 380.84414544 323.48340336 381.32421875 324.953125 C381.76959103 326.30211387 382.23023042 327.64617157 382.70703125 328.984375 C389.61382226 348.63364142 392.26505825 369.17280344 392.84228516 389.90795898 C392.97200014 392.11862416 392.97200014 392.11862416 393.50048828 394.73803711 C394.08695077 398.56781487 394.18012137 402.33083402 394.203125 406.1953125 C394.21004868 406.97653976 394.21697235 407.75776703 394.22410583 408.56266785 C394.24136975 411.08349639 394.24769848 413.60411504 394.25 416.125 C394.25133942 416.98314301 394.25267883 417.84128601 394.25405884 418.72543335 C394.25000324 430.67364209 393.83036194 442.21995343 391.41015625 453.95849609 C391.00321697 455.98398791 390.66328258 458.0098162 390.34375 460.05078125 C383.7898321 501.39317386 369.94256968 540.76649537 351 578 C350.36771484 579.25756104 350.36771484 579.25756104 349.72265625 580.54052734 C333.83244432 611.84500636 312.00276062 642.83576463 286.7421875 667.2578125 C284.96662805 669.03337195 283.36393156 670.88968202 281.75 672.8125 C277.40225724 677.86340844 272.43401452 682.23637216 267.47705078 686.67138672 C266.13938388 687.87462363 264.81681071 689.09458854 263.49609375 690.31640625 C257.22494535 696.09164835 250.63244231 701.372311 243.87402344 706.55859375 C242.01541145 707.98814627 240.16795637 709.43131427 238.3203125 710.875 C204.4135869 737.10936879 166.09351173 755.44086787 126 770 C125.22333984 770.28601074 124.44667969 770.57202148 123.64648438 770.86669922 C105.41675029 777.54282093 86.07326295 781.55086761 67 785 C66.24201111 785.13852386 65.48402222 785.27704773 64.70306396 785.41976929 C50.15616263 787.99759861 35.81716666 788.49704829 21.0637207 788.44604492 C17.33423277 788.43754951 13.60629068 788.46639866 9.87695312 788.49804688 C-33.82651738 788.6280476 -72.14355361 776.41755763 -104.8125 747 C-105.33505371 746.53086182 -105.85760742 746.06172363 -106.39599609 745.57836914 C-107.6387463 744.42879351 -108.82535943 743.21908643 -110 742 C-110 741.34 -110 740.68 -110 740 C-110.99 739.67 -111.98 739.34 -113 739 C-114.77518873 737.05988665 -116.39466546 735.13649367 -118 733.0625 C-118.48057861 732.4427832 -118.96115723 731.82306641 -119.45629883 731.18457031 C-132.89053538 713.48206242 -142.1454224 694.38026243 -147.49975586 672.84960938 C-148.01945107 670.81324208 -148.01945107 670.81324208 -149.05859375 668.171875 C-156.92904531 641.65400502 -153.03500936 601.53630932 -139.94824219 577.03051758 C-138.97493553 575.34818103 -137.98834669 573.67354502 -137 572 C-136.23959428 569.73014106 -136.23959428 569.73014106 -136 568 C-135.34 568 -134.68 568 -134 568 C-133.9278125 567.32195313 -133.855625 566.64390625 -133.78125 565.9453125 C-132.755922 562.07982594 -130.73890069 559.12867516 -128.5 555.875 C-128.04641113 555.20976318 -127.59282227 554.54452637 -127.12548828 553.85913086 C-115.13597717 536.48584801 -100.48692289 521.78853661 -83 510 C-82.03449219 509.32324219 -81.06898438 508.64648438 -80.07421875 507.94921875 C-73.42208803 503.45349509 -66.52754778 500.7070994 -59 498 C-57.845 497.484375 -56.69 496.96875 -55.5 496.4375 C-18.18544895 481.11188082 23.23192146 484.44891552 60 499 C87.55479771 510.81125673 111.02471423 532.1195007 126.92919922 557.33105469 C127.90547692 558.85267674 128.93645261 560.33884909 129.97265625 561.8203125 C145.39849301 586.01420677 149.62200521 614.95669655 150 643 C158.53919731 635.87941127 166.89584961 628.61335251 175 621 C175.65613281 620.38640625 176.31226563 619.7728125 176.98828125 619.140625 C182.14002233 614.16653016 186.55638003 608.60377691 191 603 C191.79535156 602.01 192.59070313 601.02 193.41015625 600 C210.22623686 578.68008798 223.51794455 554.82233763 232 529 C232.36496582 527.94039062 232.36496582 527.94039062 232.73730469 526.859375 C241.38812255 501.61196866 245.18516042 476.43995537 245.25 449.8125 C245.25200409 449.13477539 245.25400818 448.45705078 245.256073 447.75878906 C245.26634492 433.36970852 243.86776711 419.26678607 242 405 C241.66445732 402.33360726 241.33257752 399.66676494 241 397 C240.00662376 397.00515373 239.01324753 397.01030746 237.98976898 397.01561737 C204.19647617 397.19030509 170.40310056 397.3461292 136.60966754 397.49095565 C134.50914995 397.49996077 132.40863248 397.50899303 130.30811501 397.51802588 C41.47694242 397.89934166 -47.35349707 398.05724134 -220.02914381 398.06315851 C-223.26015313 398.06249792 -226.49116246 398.06185521 -229.72217178 398.06121445 C-284.81478539 398.05016776 -339.9073935 398.03001932 -395 398 C-395.01410485 394.50268971 -395.02254249 391.00538687 -395.0300293 387.50805664 C-395.0340551 386.52687111 -395.0380809 385.54568558 -395.0422287 384.53476715 C-395.05519699 376.44097274 -394.62484436 368.49439261 -393.8125 360.4375 C-393.7478656 359.77421692 -393.6832312 359.11093384 -393.61663818 358.42755127 C-392.18070621 343.82006175 -389.83844567 329.40023657 -387 315 C-386.81211914 314.03481445 -386.62423828 313.06962891 -386.43066406 312.07519531 C-375.08239215 255.01017736 -349.05514188 199.61632323 -313 154 C-312.04480469 152.77603516 -312.04480469 152.77603516 -311.0703125 151.52734375 C-296.26080797 132.76269042 -280.21563938 114.53319934 -262 99 C-261.0409375 98.15179688 -260.081875 97.30359375 -259.09375 96.4296875 C-200.8066853 45.13637031 -125.923787 11.51579266 -48.8125 2.375 C-47.77351563 2.25020264 -46.73453125 2.12540527 -45.6640625 1.99682617 C-42.77697498 1.65563727 -39.88893954 1.32508007 -37 1 C-35.81792969 0.86464844 -34.63585937 0.72929688 -33.41796875 0.58984375 C-22.28924078 -0.46790683 -11.20428035 0 0 0 Z " fill="#FEFEFE" transform="translate(490,112)"/>
<path d="M0 0 C18.41091268 17.37465118 29.94440165 40.88992867 30.78491211 66.23486328 C30.99797798 90.00396389 24.65761289 111.76701527 9.25 130.25 C8.61449219 131.03503906 7.97898437 131.82007813 7.32421875 132.62890625 C-6.8462625 149.41198124 -28.30807574 161.35386498 -50.19140625 164.00390625 C-81.21111926 166.14906752 -106.21717935 158.71738437 -130 138.3203125 C-146.72658225 122.60541869 -157.1807745 100.10056134 -158.0546875 77.234375 C-158.62488507 48.25797106 -150.46583553 23.76688444 -130.375 2.5 C-117.62240733 -9.51116286 -102.84073073 -17.9071138 -85.75 -21.75 C-84.83605469 -21.97429688 -83.92210937 -22.19859375 -82.98046875 -22.4296875 C-52.5147145 -28.79306392 -23.50265982 -19.4605357 0 0 Z " fill="#CA3567" transform="translate(556.75,681.75)"/>
<path d="M0 0 C0.99 0.495 0.99 0.495 2 1 C6.54441768 15.13818835 4.8412657 31.43456301 -1.28515625 44.8046875 C-5.61840024 52.55383134 -11.7193205 59.87716895 -19 65 C-18.7834375 65.76957031 -18.566875 66.53914063 -18.34375 67.33203125 C-11.92221687 93.82085541 -15.88367399 120.18533782 -29.05078125 143.86328125 C-32.23877955 148.99346689 -35.96720608 153.51598438 -40 158 C-40.61359375 158.69609375 -41.2271875 159.3921875 -41.859375 160.109375 C-52.0245573 170.9696125 -64.29299691 177.71216907 -78 183 C-79.299375 183.50660156 -79.299375 183.50660156 -80.625 184.0234375 C-89.89492112 187.36723048 -99.45024108 188.36762051 -109.25 188.3125 C-110.24563965 188.30976074 -111.2412793 188.30702148 -112.26708984 188.30419922 C-122.24180128 188.16398272 -131.75254248 186.95337403 -141 183 C-135.13087298 166.26996266 -117.42888548 151.06804687 -105 139 C-110.54362667 136.31808332 -115.66988906 135.20197027 -121.75 134.375 C-123.4326041 134.13499274 -125.11491147 133.89289349 -126.796875 133.6484375 C-127.90047363 133.49640869 -127.90047363 133.49640869 -129.02636719 133.34130859 C-131 133 -131 133 -134 132 C-135.33525717 131.92026524 -136.67412083 131.89228662 -138.01171875 131.90234375 C-138.76904297 131.90556641 -139.52636719 131.90878906 -140.30664062 131.91210938 C-141.09232422 131.92048828 -141.87800781 131.92886719 -142.6875 131.9375 C-143.88342773 131.94426758 -143.88342773 131.94426758 -145.10351562 131.95117188 C-147.06904257 131.9629415 -149.03453085 131.98087652 -151 132 C-151.79967062 134.28913346 -152.58972129 136.58092737 -153.375 138.875 C-153.59671875 139.50664062 -153.8184375 140.13828125 -154.046875 140.7890625 C-157.07547324 149.69670437 -158.36767041 158.28679734 -158.3125 167.6875 C-158.30976074 168.63995605 -158.30702148 169.59241211 -158.30419922 170.57373047 C-158.18112158 178.97271814 -157.82556281 188.63332701 -153.8359375 196.2109375 C-153 198 -153 198 -154 201 C-156.3577514 198.35416322 -158.68174408 195.6804834 -161 193 C-161.721875 192.17886719 -162.44375 191.35773438 -163.1875 190.51171875 C-182.56111903 167.80825895 -188.0041942 142.34744679 -186 113 C-184.88384586 104.21767129 -182.08926603 95.84001665 -178 88 C-177.50757813 86.99582031 -177.01515625 85.99164063 -176.5078125 84.95703125 C-172.52365462 77.12641679 -167.86891709 70.52557914 -162 64 C-161.38640625 63.30390625 -160.7728125 62.6078125 -160.140625 61.890625 C-145.56455583 46.31790153 -123.35443726 34.98333564 -101.86645508 33.89160156 C-89.78941935 33.5880897 -77.76794918 33.56097445 -66.25 37.625 C-56.4423148 40.77116416 -44.33363195 40.31495287 -35 36 C-34.2678125 35.70996094 -33.535625 35.41992188 -32.78125 35.12109375 C-16.94591089 28.64053545 -7.30298925 17.62616489 -0.76953125 2.0703125 C-0.51558594 1.38710937 -0.26164063 0.70390625 0 0 Z " fill="#C93567" transform="translate(431,242)"/>
<path d="M0 0 C11.49788121 10.71304291 17.71287862 23.96719826 18.77734375 39.48046875 C19.12217852 56.15958215 13.96446049 70.91454983 2.4609375 83.20703125 C-9.92153098 94.80930354 -24.58744727 99.50499724 -41.296875 99.21484375 C-55.93914579 98.66819003 -68.71462715 92.53689583 -79.24609375 82.44921875 C-91.45284493 68.99380519 -95.18158041 53.7390879 -94.59277344 36.16210938 C-93.7465355 22.3339547 -86.04202473 10.48679223 -76.4609375 1.0078125 C-75.93113281 0.44449219 -75.40132813 -0.11882813 -74.85546875 -0.69921875 C-54.13103291 -20.89089275 -20.97900602 -16.98300487 0 0 Z " fill="#FEFDFD" transform="translate(531.4609375,708.9921875)"/>
<path d="M0 0 C9.21279837 3.32684386 9.21279837 3.32684386 11.08984375 7.31640625 C10.95830039 11.24554928 8.77740813 13.11602924 6.125 15.75 C5.61759277 16.27005615 5.11018555 16.7901123 4.58740234 17.32592773 C3.55166171 18.38555507 2.51080102 19.44020231 1.46484375 20.48974609 C0.16115188 21.83385241 -1.06642006 23.2508523 -2.28125 24.67578125 C-9.23779063 32.60571842 -16.67001516 33.62815698 -26.8359375 34.38671875 C-31.22229112 34.67156362 -35.60687942 34.85701403 -40 35 C-39.979375 36.0725 -39.95875 37.145 -39.9375 38.25 C-39.98685459 41.21127557 -40.21903973 43.2252245 -41 46 C-41.59160137 52.1549296 -40.80239521 56.50730538 -38 62 C-37.67 62.66 -37.34 63.32 -37 64 C-28.65587961 67.59489772 -19.90225066 67.48214854 -11 67 C-10.19127441 66.95746094 -9.38254883 66.91492188 -8.54931641 66.87109375 C2.20456602 66.23910819 12.7551956 64.90236872 23.3125 62.75 C24.24835938 62.56993408 25.18421875 62.38986816 26.1484375 62.2043457 C35.35291182 60.18714211 42.31918718 55.88693883 47.71484375 48.1015625 C49.71596958 44.82920476 51.38476333 41.47897129 53 38 C53.66 38 54.32 38 55 38 C54.96519531 38.83402344 54.93039062 39.66804687 54.89453125 40.52734375 C54.7402337 46.94171315 55.05096998 52.0710638 57.30078125 58.07421875 C58.38126342 61.05007188 58.77527594 62.89889624 58 66 C51.25306692 71.76300534 42.43662476 73.81200101 34 76 C33.25637207 76.20044922 32.51274414 76.40089844 31.74658203 76.60742188 C18.48582115 80.0342654 5.30042765 80.37169379 -8.3125 80.375 C-9.1693338 80.37690338 -10.0261676 80.37880676 -10.90896606 80.38076782 C-13.39407485 80.38014285 -15.87831963 80.36202547 -18.36328125 80.3359375 C-19.10012146 80.33352554 -19.83696167 80.33111359 -20.59613037 80.32862854 C-33.66267586 80.09719739 -33.66267586 80.09719739 -37.57733154 76.5847168 C-38.86012939 74.99924364 -39.90248423 73.38162489 -40.9375 71.625 C-41.30939453 71.0475 -41.68128906 70.47 -42.06445312 69.875 C-43.08224518 68.27430729 -44.04346758 66.63803649 -45 65 C-45.35956787 64.43619629 -45.71913574 63.87239258 -46.08959961 63.29150391 C-47.40745236 59.97443073 -47.35782056 56.69241439 -47.4140625 53.171875 C-47.43342865 52.42286926 -47.4527948 51.67386353 -47.4727478 50.90216064 C-47.53235716 48.51822164 -47.57885354 46.13423386 -47.625 43.75 C-47.66319701 42.13018769 -47.70224975 40.51039532 -47.7421875 38.890625 C-47.83804313 34.92724594 -47.92214246 30.96377181 -48 27 C-46.68 27 -45.36 27 -44 27 C-43.34 28.65 -42.68 30.3 -42 32 C-40.60301364 31.71390693 -39.2074567 31.42083095 -37.8125 31.125 C-37.03519531 30.96257813 -36.25789062 30.80015625 -35.45703125 30.6328125 C-32.52346075 29.93319515 -32.52346075 29.93319515 -28 28 C-27.67 24.37 -27.34 20.74 -27 17 C-28.299375 17.495 -29.59875 17.99 -30.9375 18.5 C-35.80755827 20.14654351 -39.88763177 20.24344611 -45 20 C-45 19.01 -45 18.02 -45 17 C-43.23141309 16.32739649 -41.46003984 15.66211605 -39.6875 15 C-38.70136719 14.62875 -37.71523437 14.2575 -36.69921875 13.875 C-34 13 -34 13 -31 13 C-30.67 11.68 -30.34 10.36 -30 9 C-28.783125 8.814375 -27.56625 8.62875 -26.3125 8.4375 C-21.84164315 7.48550367 -18.38669731 5.65338306 -14.4375 3.375 C-9.03692734 0.38025089 -6.10142194 -1.20027973 0 0 Z " fill="#FDFBFB" transform="translate(205,765)"/>
<path d="M0 0 C7.273239 3.83012769 12.94105087 8.92501488 16.3359375 16.5 C18.57076961 24.20914562 18.49066472 32.56717329 15.1875 39.9375 C10.85569456 47.24211309 4.80527006 51.9510853 -3.171875 54.77734375 C-10.39914164 56.58416041 -17.03106343 56.16942718 -23.68359375 52.75390625 C-30.99971406 48.22999333 -36.33116489 42.84202215 -38.8125 34.4375 C-40.04221695 24.95888529 -39.11113804 16.25263368 -33.33984375 8.4453125 C-24.67020612 -1.10563581 -12.2617429 -4.86241529 0 0 Z " fill="#CA3668" transform="translate(503.8125,725.5625)"/>
<path d="M0 0 C2.73828125 1.94140625 2.73828125 1.94140625 5.3125 4.5625 C6.17488281 5.40941406 7.03726563 6.25632812 7.92578125 7.12890625 C10.4406856 10.60998854 11 12.71637144 11 17 C9.63671875 19.94921875 9.63671875 19.94921875 7.6875 22.6875 C5.55730846 25.74235887 3.62019789 28.64892404 2 32 C18.18315807 41.57629409 33.79670491 49.9407043 52 55 C53.43754611 55.41650756 54.87505572 55.83314116 56.3125 56.25 C57.199375 56.4975 58.08625 56.745 59 57 C59.5625 58.9375 59.5625 58.9375 60 61 C57.34156379 63.65843621 49.9185025 62.31148703 46.34985352 62.31689453 C38.64261217 62.21152082 32.11970512 61.06636021 25 58 C23.51693359 57.38125 23.51693359 57.38125 22.00390625 56.75 C12.84316393 52.55678635 3.93495283 46.3668876 -3 39 C-6.10473291 40.41314076 -8.50805516 42.13493151 -11.125 44.3125 C-23.93830972 54.37115681 -38.00327614 57.79651737 -54 57 C-54 56.01 -54 55.02 -54 54 C-47.49645142 51.40283821 -41.0857653 48.98564067 -34.3125 47.1875 C-26.16270444 44.76725768 -19.87256668 39.95194228 -15 33 C-16.26831693 32.18357746 -17.53975931 31.37200895 -18.8125 30.5625 C-19.52019531 30.11003906 -20.22789062 29.65757812 -20.95703125 29.19140625 C-24.79919033 26.95075899 -28.32076067 26.7401453 -32.6875 26.4375 C-33.86699219 26.35371094 -35.04648438 26.26992188 -36.26171875 26.18359375 C-37.61716797 26.09271484 -37.61716797 26.09271484 -39 26 C-38.6875 24.125 -38.6875 24.125 -38 22 C-33.84622664 19.23081776 -30.68187051 20.08398186 -26 21 C-22.13054028 22.03185593 -18.2907017 23.11285649 -14.453125 24.2578125 C-11.0584882 24.98742901 -9.18804668 25.36466746 -6 24 C-3.99621294 20.53947204 -3.66001857 17.13025684 -3.375 13.1875 C-3.30023438 12.21167969 -3.22546875 11.23585938 -3.1484375 10.23046875 C-3.09945312 9.49441406 -3.05046875 8.75835938 -3 8 C-4.22976562 8.433125 -5.45953125 8.86625 -6.7265625 9.3125 C-8.35920902 9.87548156 -9.99203089 10.43795482 -11.625 11 C-12.43324219 11.28617188 -13.24148437 11.57234375 -14.07421875 11.8671875 C-18.53114644 13.38906525 -22.22037472 14.37123303 -27 14 C-27.33 12.68 -27.66 11.36 -28 10 C-24.89716979 8.51801792 -21.79251273 7.03990317 -18.6875 5.5625 C-17.80642578 5.14162109 -16.92535156 4.72074219 -16.01757812 4.28710938 C-14.74624023 3.68286133 -14.74624023 3.68286133 -13.44921875 3.06640625 C-12.66893311 2.69459229 -11.88864746 2.32277832 -11.0847168 1.93969727 C-7.20856004 0.19249884 -4.23891851 -0.46865062 0 0 Z " fill="#FDF9F9" transform="translate(211,655)"/>
<path d="M0 0 C2.5213067 1.25088084 4.64061809 2.43885868 6.9375 4 C7.52595703 4.3815625 8.11441406 4.763125 8.72070312 5.15625 C10.15641767 6.09004808 11.57958564 7.04308927 13 8 C12.35127867 12.86833214 11.43238651 17.32087073 10 22 C11.96035175 21.55037804 13.91824309 21.09001752 15.875 20.625 C16.96554688 20.36976563 18.05609375 20.11453125 19.1796875 19.8515625 C22.10408455 19.21093785 22.10408455 19.21093785 24 17 C29.35905087 16.23785953 35.23028945 15.74608177 39.75 19.125 C42 22 42 22 42.375 25.3125 C42.189375 26.6428125 42.189375 26.6428125 42 28 C40.4375 28.6875 40.4375 28.6875 38 29 C36.9996875 28.525625 35.999375 28.05125 34.96875 27.5625 C30.41668252 25.52134463 25.99074609 25.44367005 21.0625 25.3125 C19.75055664 25.26125977 19.75055664 25.26125977 18.41210938 25.20898438 C16.27516746 25.12724343 14.13760782 25.0619287 12 25 C12.639375 25.9075 13.27875 26.815 13.9375 27.75 C19.46234075 36.45580966 18.09406593 49.35711892 18.1875 59.4375 C18.20047119 60.16984863 18.21344238 60.90219727 18.22680664 61.65673828 C18.2354632 66.74333474 17.39572687 71.10668088 16 76 C13.25 76.125 13.25 76.125 10 75 C7.90677009 71.39076419 6 67.22668701 6 63 C7.65 63 9.3 63 11 63 C10.88845737 59.0620011 10.75824263 55.12481968 10.625 51.1875 C10.5940625 50.08728516 10.563125 48.98707031 10.53125 47.85351562 C10.27937593 40.73807308 9.4894812 33.96345589 8 27 C7.34 27 6.68 27 6 27 C5.505 29.475 5.505 29.475 5 32 C4.01 32.33 3.02 32.66 2 33 C1.67 31.35 1.34 29.7 1 28 C-7.20678423 28.47879722 -14.93791369 29.71264438 -22.9375 31.5625 C-44.29645452 36.2370409 -44.29645452 36.2370409 -50.328125 32.59375 C-50.87984375 32.0678125 -51.4315625 31.541875 -52 31 C-52 30.34 -52 29.68 -52 29 C-51.43418213 28.96036133 -50.86836426 28.92072266 -50.28540039 28.87988281 C-33.03044741 27.62874751 -15.96073912 25.45412049 1 22 C1.24764489 18.44556751 1.09505151 15.4057549 0 12 C-2.99633689 8.80458791 -6.33506073 6.38121281 -10 4 C-9.67 3.01 -9.34 2.02 -9 1 C-5.88170713 -0.55914644 -3.45347737 -0.28336225 0 0 Z " fill="#FDF9F9" transform="translate(201,580)"/>
<path d="M0 0 C9.21279837 3.32684386 9.21279837 3.32684386 11.08984375 7.31640625 C10.95830039 11.24554928 8.77740813 13.11602924 6.125 15.75 C5.61759277 16.27005615 5.11018555 16.7901123 4.58740234 17.32592773 C3.55166171 18.38555507 2.51080102 19.44020231 1.46484375 20.48974609 C0.16115188 21.83385241 -1.06642006 23.2508523 -2.28125 24.67578125 C-8.02236493 31.22022383 -13.39867068 33.19863391 -22 34 C-28.00485514 34.26282192 -33.99414511 34.1819956 -40 34 C-40.33 33.34 -40.66 32.68 -41 32 C-39.07942708 31.54427083 -37.15885417 31.08854167 -35.23828125 30.6328125 C-32.76771061 29.93432656 -30.38378175 28.9535127 -28 28 C-27.67 24.37 -27.34 20.74 -27 17 C-28.299375 17.495 -29.59875 17.99 -30.9375 18.5 C-35.80755827 20.14654351 -39.88763177 20.24344611 -45 20 C-45 19.01 -45 18.02 -45 17 C-43.23141309 16.32739649 -41.46003984 15.66211605 -39.6875 15 C-38.70136719 14.62875 -37.71523437 14.2575 -36.69921875 13.875 C-34 13 -34 13 -31 13 C-30.67 11.68 -30.34 10.36 -30 9 C-28.783125 8.814375 -27.56625 8.62875 -26.3125 8.4375 C-21.84164315 7.48550367 -18.38669731 5.65338306 -14.4375 3.375 C-9.03692734 0.38025089 -6.10142194 -1.20027973 0 0 Z " fill="#FCF7F8" transform="translate(205,765)"/>
<path d="M0 0 C3.6344969 1.78126333 7.18884937 3.70197866 10.75 5.625 C11.35199219 5.94984375 11.95398438 6.2746875 12.57421875 6.609375 C14.04977297 7.40570585 15.52492686 8.20277839 17 9 C17 10.32 17 11.64 17 13 C17.680625 13.0825 18.36125 13.165 19.0625 13.25 C22.8746907 14.22332528 25.64070329 15.95807455 29 18 C28.16785695 22.72612168 25.24652868 24.51952968 21.5625 27.25 C20.28210066 28.2233648 19.00215554 29.19732737 17.72265625 30.171875 C17.0898877 30.64947266 16.45711914 31.12707031 15.80517578 31.61914062 C13.32060128 33.51970235 10.91344039 35.51029342 8.5 37.5 C0.38831967 44 0.38831967 44 -5 44 C-3.86027703 40.58083108 -2.36962208 39.59553992 0.37353516 37.40527344 C3.03001137 35.11006523 5.07768665 32.41614153 7.1875 29.625 C7.61224609 29.08617187 8.03699219 28.54734375 8.47460938 27.9921875 C11.38487507 24.1902852 13.26571394 20.46282081 15 16 C11.81668571 17.84837604 8.74242145 19.82429149 5.6875 21.875 C-9.44962687 32 -9.44962687 32 -15 32 C-13.11369921 27.54534616 -9.87300977 24.18587139 -6.72070312 20.59765625 C-2.18351384 15.30990361 0.46004475 11.05401949 0 4 C0 2.68 0 1.36 0 0 Z " fill="#FDF9FA" transform="translate(181,727)"/>
<path d="M0 0 C7.93584073 2.47995023 15.63413806 8.97544009 20 16 C20.0625 19.375 20.0625 19.375 19 22 C17 24 17 24 14.55859375 24.35546875 C12 24 12 24 10.41015625 22.48828125 C0 5.68115942 0 5.68115942 0 0 Z " fill="#FDFAFA" transform="translate(229,617)"/>
<path d="M0 0 C1.79153389 3.30991912 2.92150489 6.66752072 4.0625 10.25 C6.7724858 18.623479 9.90442162 26.83294494 13.05297852 35.04980469 C13.43381592 36.05043945 13.81465332 37.05107422 14.20703125 38.08203125 C14.5522583 38.98155518 14.89748535 39.8810791 15.25317383 40.80786133 C16 43 16 43 16 45 C12.59687262 43.94124926 9.98646769 42.99097846 7 41 C7.0687915 39.1770253 7.13828868 37.35407505 7.2109375 35.53125 C6.67439971 29.09279655 3.21702621 22.90272089 0.7421875 17 C-1.60156195 11.09965174 -2.50027237 7.23190062 -1 1 C-0.67 0.67 -0.34 0.34 0 0 Z " fill="#CA3467" transform="translate(958,363)"/>
<path d="M0 0 C0.99 0.33 1.98 0.66 3 1 C6.69056661 11.91982466 7.66561912 22.26784922 3.0703125 32.87109375 C2 35 2 35 0 38 C-1.32 37.67 -2.64 37.34 -4 37 C-3.5857682 33.0233747 -3.07707406 30.17774223 -1.46875 26.46875 C0.56302348 21.19897121 0.33019188 16.07595942 0.1875 10.5 C0.17396484 9.48679687 0.16042969 8.47359375 0.14648438 7.4296875 C0.11143063 4.95255596 0.06229764 2.47657073 0 0 Z " fill="#FCF5F6" transform="translate(189,615)"/>
<path d="M0 0 C0.99 0 1.98 0 3 0 C3.4125 0.70125 3.825 1.4025 4.25 2.125 C6.54567351 5.89646362 9.36240365 8.51026739 13 11 C13.825 11.165 14.65 11.33 15.5 11.5 C19.53478223 12.30695645 22.0658447 15.23496028 25 18 C25.103125 17.21625 25.20625 16.4325 25.3125 15.625 C26 13 26 13 29 11 C29.06058594 11.59167969 29.12117187 12.18335938 29.18359375 12.79296875 C29.62012371 16.90978208 30.08671346 20.95544533 31 25 C28.50638429 23.79618552 26.31856917 22.54571278 24 21 C23.195625 20.731875 22.39125 20.46375 21.5625 20.1875 C18.38939779 18.717038 17.00265953 16.81855785 15 14 C14.401875 14.165 13.80375 14.33 13.1875 14.5 C11 15 11 15 8 15 C7.60167969 14.24074219 7.20335937 13.48148438 6.79296875 12.69921875 C6.26316406 11.70535156 5.73335937 10.71148437 5.1875 9.6875 C4.66542969 8.70136719 4.14335938 7.71523437 3.60546875 6.69921875 C2.2280124 4.38334932 1.00469409 2.76388999 -1 1 C-0.67 0.67 -0.34 0.34 0 0 Z " fill="#CA3467" transform="translate(896,227)"/>
<path d="M0 0 C0.99 0.33 1.98 0.66 3 1 C5.10788286 6.09188164 6.9593945 12.51774574 6 18 C3.7793949 20.467339 2.56430797 20.96152446 -0.75 21.1875 C-1.86375 21.0946875 -1.86375 21.0946875 -3 21 C-4.5329083 17.01443842 -3.50278067 13.39431148 -2.625 9.375 C-2.41617188 8.3540625 -2.41617188 8.3540625 -2.203125 7.3125 C-1.15529337 2.31058673 -1.15529337 2.31058673 0 0 Z " fill="#FCF7F8" transform="translate(168,621)"/>
<path d="M0 0 C4.75444697 0.63700358 8.58645481 2.54482788 12.8125 4.6875 C13.52083984 5.04328125 14.22917969 5.3990625 14.95898438 5.765625 C20.07084883 8.38974677 24.57452777 11.31210648 29 15 C28.01 15.495 28.01 15.495 27 16 C26.59270772 18.32156597 26.25561323 20.6568787 26 23 C24.68 23 23.36 23 22 23 C21.69707031 22.33613281 21.39414062 21.67226562 21.08203125 20.98828125 C18.63196584 15.82429722 16.43621282 11.75371854 12 8 C11.1028125 7.2265625 11.1028125 7.2265625 10.1875 6.4375 C6.95020103 4.31013211 3.4908703 2.66917827 0 1 C0 0.67 0 0.34 0 0 Z " fill="#CA3467" transform="translate(859,159)"/>
<path d="M0 0 C1.29953883 2.59907766 1.29633121 4.78885663 1.5 7.6875 C1.83955925 12.16644822 2.29448566 16.56533844 3 21 C3.66 21 4.32 21 5 21 C5 23.31 5 25.62 5 28 C1.65626525 27.44271087 -1.03312999 26.64826111 -4 25 C-4 24.34 -4 23.68 -4 23 C-2.35 23.33 -0.7 23.66 1 24 C-0.80412643 20.73539027 -1.83394693 19.11070205 -5 17 C-4.69343615 10.37822074 -3.25711277 5.77874846 0 0 Z " fill="#CA3467" transform="translate(896,236)"/>
<path d="M0 0 C0.61189802 7.95467422 0.61189802 7.95467422 -1.5 11.5625 C-5.14334551 13.65742367 -7.83456807 13.27769546 -12 13 C-12.4375 9.875 -12.4375 9.875 -12 6 C-8.87690221 1.93291502 -5.33253663 -0.96955211 0 0 Z " fill="#CB396A" transform="translate(197,775)"/>
<path d="M0 0 C1.77395508 0.42466497 3.54410631 0.8652409 5.3125 1.3125 C6.29863281 1.55613281 7.28476562 1.79976563 8.30078125 2.05078125 C11.0289408 3.01017745 12.34156471 3.65055 14 6 C13.6875 9.1875 13.6875 9.1875 13 12 C9.71890362 10.87212312 6.70187979 9.39011594 3.6875 7.6875 C2.99011719 7.29949219 2.29273438 6.91148438 1.57421875 6.51171875 C0 5 0 5 -0.23046875 2.33203125 C-0.15441406 1.56246094 -0.07835937 0.79289062 0 0 Z " fill="#CA3467" transform="translate(754,99)"/>
<path d="M0 0 C3.30424526 1.65212263 5.36001461 2.99014776 8.0625 5.375 C8.73410156 5.96023437 9.40570312 6.54546875 10.09765625 7.1484375 C11.97541411 8.9760704 13.48949607 10.86364865 15 13 C12.1875 13.6875 12.1875 13.6875 9 14 C7.375 12.625 7.375 12.625 6 11 C4.68 10.67 3.36 10.34 2 10 C1.34 6.7 0.68 3.4 0 0 Z " fill="#CA3467" transform="translate(856,193)"/>
<path d="M0 0 C2.3125 0.1875 2.3125 0.1875 5 1 C6.8125 3.5625 6.8125 3.5625 8 6 C7.67 6.33 7.34 6.66 7 7 C6.92851801 8.35243917 6.91600546 9.70834367 6.9375 11.0625 C6.958125 12.361875 6.97875 13.66125 7 15 C0.34511684 10.10005992 0.34511684 10.10005992 -1 5.8125 C-1 3 -1 3 0 0 Z " fill="#CA3467" transform="translate(951,290)"/>
<path d="M0 0 C3.13220429 2.5627126 4.04560617 5.10900977 5 9 C5.15041492 11.69291219 5.09314515 14.29879075 5 17 C2.1157546 16.65514457 1.1792182 16.21744593 -0.703125 13.93359375 C-1.21359375 13.10988281 -1.7240625 12.28617187 -2.25 11.4375 C-3.03117188 10.19806641 -3.03117188 10.19806641 -3.828125 8.93359375 C-4.21484375 8.29550781 -4.6015625 7.65742188 -5 7 C-4.67 6.34 -4.34 5.68 -4 5 C-2.68 5.99 -1.36 6.98 0 8 C0 5.36 0 2.72 0 0 Z " fill="#CA3467" transform="translate(952,309)"/>
<path d="M0 0 C5.19822672 1.36144033 8.09543873 3.46730171 12 7 C11.67 7.66 11.34 8.32 11 9 C10.29875 8.62875 9.5975 8.2575 8.875 7.875 C5.23556349 6.76734541 3.44299589 7.55874591 0 9 C-2 7 -2 7 -2.25 4.5 C-2 2 -2 2 0 0 Z " fill="#CA3467" transform="translate(910,258)"/>
<path d="M0 0 C0.886875 -0.00257812 1.77375 -0.00515625 2.6875 -0.0078125 C5 0.125 5 0.125 7 1.125 C6 4.125 6 4.125 3 6.125 C-0.44771821 6.14548149 -3.89925406 5.67537297 -7 4.125 C-7 3.135 -7 2.145 -7 1.125 C-4.51245214 -0.11877393 -2.77344699 -0.00806235 0 0 Z " fill="#CA3467" transform="translate(691,44.875)"/>
<path d="M0 0 C4.91919542 0.36893966 7.84535514 2.00360671 11.83203125 4.65625 C15.36688188 6.84722048 19.16530536 8.41108717 23 10 C22.67 10.66 22.34 11.32 22 12 C21.01 11.54625 20.02 11.0925 19 10.625 C16.34172694 9.46736496 13.83792378 8.70145327 11 8.125 C6.47122139 7.08125806 3.55559899 4.96299916 0 2 C0 1.34 0 0.68 0 0 Z " fill="#CA3467" transform="translate(702,83)"/>
<path d="M0 0 C6.25 4.4921875 6.25 4.4921875 8 6 C8 6.66 8 7.32 8 8 C5.03 8.66 2.06 9.32 -1 10 C-0.67 6.7 -0.34 3.4 0 0 Z " fill="#CA3467" transform="translate(984,510)"/>
<path d="M0 0 C5.62219846 4.66522851 11.16010796 9.51259405 16 15 C16 15.66 16 16.32 16 17 C12.01806598 15.39209315 9.28741815 12.6196196 6.3125 9.625 C5.81427734 9.14289063 5.31605469 8.66078125 4.80273438 8.1640625 C2.24195736 5.60676008 0.37594807 3.68953684 0 0 Z " fill="#CA3467" transform="translate(929,290)"/>
<path d="M0 0 C1.65 1.65 3.3 3.3 5 5 C5.66 3.68 6.32 2.36 7 1 C9 3 9 3 9.1953125 5.3828125 C9.17210937 6.28773438 9.14890625 7.19265625 9.125 8.125 C9.10695313 9.03507813 9.08890625 9.94515625 9.0703125 10.8828125 C9.04710937 11.58148438 9.02390625 12.28015625 9 13 C5.41193683 9.61127367 2.54315201 6.23858668 0 2 C0 1.34 0 0.68 0 0 Z " fill="#CA3467" transform="translate(894,211)"/>
<path d="M0 0 C2.55965913 0.36954739 3.70433442 0.64151596 5.37890625 2.671875 C5.76949219 3.35765625 6.16007813 4.0434375 6.5625 4.75 C6.98015625 5.46671875 7.3978125 6.1834375 7.828125 6.921875 C8.21484375 7.60765625 8.6015625 8.2934375 9 9 C9.8971875 10.485 9.8971875 10.485 10.8125 12 C11.204375 12.66 11.59625 13.32 12 14 C9.5625 13.1875 9.5625 13.1875 7 12 C6.67 11.01 6.34 10.02 6 9 C3.98491642 8.26676204 3.98491642 8.26676204 2 8 C1.855625 7.236875 1.71125 6.47375 1.5625 5.6875 C1.0367406 2.91827092 1.0367406 2.91827092 0 0 Z " fill="#CA3467" transform="translate(940,290)"/>
<path d="M0 0 C0.99 0.33 1.98 0.66 3 1 C3.66 5.29 4.32 9.58 5 14 C0.17970402 10.26427061 0.17970402 10.26427061 -0.33203125 6.6640625 C-0.31436669 4.4241967 -0.21850902 2.22879201 0 0 Z " fill="#CA3467" transform="translate(948,363)"/>
<path d="M0 0 C4.62 0 9.24 0 14 0 C14 0.66 14 1.32 14 2 C11.42183113 3.6857258 10.12469007 4.00779313 7 3.8125 C4 3 4 3 0 0 Z " fill="#CA3467" transform="translate(803,118)"/>
<path d="M0 0 C2.475 0.495 2.475 0.495 5 1 C5.33 1.99 5.66 2.98 6 4 C6.66 4.33 7.32 4.66 8 5 C8 6.65 8 8.3 8 10 C7.01 10 6.02 10 5 10 C3.35 6.7 1.7 3.4 0 0 Z " fill="#CA3467" transform="translate(960,321)"/>
<path d="M0 0 C3.63 1.32 7.26 2.64 11 4 C10.34 5.32 9.68 6.64 9 8 C5.63856582 6.87952194 4.42471166 5.50292817 2 3 C1.34 2.67 0.68 2.34 0 2 C0 1.34 0 0.68 0 0 Z " fill="#CA3467" transform="translate(746,72)"/>
<path d="M0 0 C0.66 0.33 1.32 0.66 2 1 C1.01 4.3 0.02 7.6 -1 11 C-1.66 11 -2.32 11 -3 11 C-3.75 8.875 -3.75 8.875 -4 6 C-2.0625 2.6875 -2.0625 2.6875 0 0 Z " fill="#CA3467" transform="translate(994,529)"/>
<path d="M0 0 C1.65 0 3.3 0 5 0 C5.33 1.65 5.66 3.3 6 5 C4.35 5 2.7 5 1 5 C0.67 3.35 0.34 1.7 0 0 Z " fill="#CA3467" transform="translate(992,506)"/>
<path d="M0 0 C5.9129304 0.64270983 11.34244531 2.19003784 17 4 C17 4.33 17 4.66 17 5 C10.80481527 4.58411954 5.73310689 3.39748106 0 1 C0 0.67 0 0.34 0 0 Z " fill="#666FB0" transform="translate(353,277)"/>
<path d="M0 0 C2.64 0.66 5.28 1.32 8 2 C6.6875 4 6.6875 4 5 6 C4.01 6 3.02 6 2 6 C0 3 0 3 0 0 Z " fill="#CA3467" transform="translate(788,101)"/>
<path d="M0 0 C0.66 0 1.32 0 2 0 C3.5078125 1.96875 3.5078125 1.96875 5.125 4.5 C5.66382813 5.3353125 6.20265625 6.170625 6.7578125 7.03125 C7.16773438 7.6809375 7.57765625 8.330625 8 9 C7.67 9.66 7.34 10.32 7 11 C3.18699218 7.7129243 1.77027754 4.60272162 0 0 Z " fill="#CA3467" transform="translate(969,423)"/>
<path d="M0 0 C9.59453303 2.89066059 9.59453303 2.89066059 13 6 C7.71862571 5.48474397 4.42778844 3.74522883 0 1 C0 0.67 0 0.34 0 0 Z " fill="#CA3467" transform="translate(895,200)"/>
<path d="M0 0 C5.75 0.875 5.75 0.875 8 2 C8 2.99 8 3.98 8 5 C4.62496331 3.8141763 2.35277269 2.72426311 0 0 Z " fill="#CA3467" transform="translate(767,111)"/>
</svg>
